<svg width="196" height="30" viewBox="0 0 196 30" fill="none" xmlns="http://www.w3.org/2000/svg">
    <g clip-path="url(#clip0_155_900)">
        <ellipse cx="22.1886" cy="19.0199" rx="10.0343" ry="10.0343" fill="url(#paint0_linear_155_900)"/>
        <ellipse cx="18.8441" cy="14.5601" rx="2.22983" ry="2.22984" fill="white"/>
        <ellipse cx="45.6026" cy="19.0199" rx="10.0343" ry="10.0343" fill="url(#paint1_linear_155_900)"/>
        <ellipse cx="41.1429" cy="14.5601" rx="2.22984" ry="2.22984" fill="white"/>
        <rect x="0.415039" width="6.59038" height="29.0941" rx="3.29519" fill="#8D27ED"/>
        <rect x="73.3721" y="7.53613" width="5.31568" height="15.2553" rx="2.65784"
              transform="rotate(45 73.3721 7.53613)" fill="#6825FD"/>
        <rect x="77.7441" y="26.0671" width="5.56196" height="15.9148" rx="2.78098"
              transform="rotate(135 77.7441 26.0671)" fill="#6825FD"/>
        <rect x="60.7773" width="6.59038" height="29.0941" rx="3.29519" fill="#8D27ED"/>
    </g>
    <path d="M95.0444 27H91.0764V3.608H95.0444L102.596 22.232L110.148 3.608H114.18V27H110.212V19.8C110.212 15.096 110.212 13.72 110.436 12.056L104.484 27H100.708L94.7884 12.088C95.0124 13.496 95.0444 15.704 95.0444 18.616V27ZM125.854 27.416C121.15 27.416 117.854 23.992 117.854 19.096C117.854 14.136 121.086 10.712 125.726 10.712C130.462 10.712 133.47 13.88 133.47 18.808V19.992L121.566 20.024C121.854 22.808 123.326 24.216 125.918 24.216C128.062 24.216 129.47 23.384 129.918 21.88H133.534C132.862 25.336 129.982 27.416 125.854 27.416ZM125.758 13.912C123.454 13.912 122.046 15.16 121.662 17.528H129.598C129.598 15.352 128.094 13.912 125.758 13.912ZM140.498 27H136.594V11.192H140.178L140.498 13.048C141.298 11.736 142.898 10.712 145.17 10.712C147.57 10.712 149.234 11.896 150.066 13.72C150.866 11.896 152.722 10.712 155.122 10.712C158.962 10.712 161.074 13.016 161.074 16.664V27H157.202V17.688C157.202 15.416 155.986 14.232 154.13 14.232C152.242 14.232 150.802 15.448 150.802 18.04V27H146.898V17.656C146.898 15.448 145.714 14.264 143.858 14.264C142.002 14.264 140.498 15.48 140.498 18.04V27ZM171.979 27.416C167.275 27.416 163.979 23.992 163.979 19.096C163.979 14.136 167.211 10.712 171.851 10.712C176.587 10.712 179.595 13.88 179.595 18.808V19.992L167.691 20.024C167.979 22.808 169.451 24.216 172.043 24.216C174.187 24.216 175.595 23.384 176.043 21.88H179.659C178.987 25.336 176.107 27.416 171.979 27.416ZM171.883 13.912C169.579 13.912 168.171 15.16 167.787 17.528H175.723C175.723 15.352 174.219 13.912 171.883 13.912ZM181.503 22.2H185.215C185.247 23.576 186.271 24.44 188.063 24.44C189.887 24.44 190.879 23.704 190.879 22.552C190.879 21.752 190.463 21.176 189.055 20.856L186.207 20.184C183.359 19.544 181.983 18.2 181.983 15.672C181.983 12.568 184.607 10.712 188.255 10.712C191.807 10.712 194.207 12.76 194.239 15.832H190.527C190.495 14.488 189.599 13.624 188.095 13.624C186.559 13.624 185.663 14.328 185.663 15.512C185.663 16.408 186.367 16.984 187.711 17.304L190.559 17.976C193.215 18.584 194.559 19.8 194.559 22.232C194.559 25.432 191.839 27.416 187.935 27.416C183.999 27.416 181.503 25.304 181.503 22.2Z"
          fill="white"/>
    <defs>
        <linearGradient id="paint0_linear_155_900" x1="22.1886" y1="8.98559" x2="22.1886" y2="29.0541"
                        gradientUnits="userSpaceOnUse">
            <stop stop-color="#6613D1"/>
            <stop offset="1" stop-color="#CD57EE"/>
        </linearGradient>
        <linearGradient id="paint1_linear_155_900" x1="45.6026" y1="8.98559" x2="45.6026" y2="29.0541"
                        gradientUnits="userSpaceOnUse">
            <stop stop-color="#6613D1"/>
            <stop offset="1" stop-color="#CD57EE"/>
        </linearGradient>
        <clipPath id="clip0_155_900">
            <rect width="78" height="30" fill="white"/>
        </clipPath>
    </defs>
</svg>
